<svg width="154" height="51" viewBox="0 0 154 51" fill="none" xmlns="http://www.w3.org/2000/svg">
<path d="M10.868 49.8845C10.4759 49.8845 10.0932 49.8795 9.70422 49.8708C8.89832 49.8604 8.0943 49.7909 7.29876 49.6629C6.55695 49.5363 5.83835 49.3009 5.16664 48.9643C4.50109 48.6305 3.89405 48.1929 3.36879 47.6681C2.83592 47.1496 2.39228 46.5481 2.05546 45.8876C1.71492 45.2228 1.47925 44.5102 1.35665 43.7747C1.22426 42.9843 1.15263 42.1851 1.14238 41.384C1.13422 41.1152 1.12354 40.2198 1.12354 40.2198V10.7666C1.12354 10.7666 1.13491 9.88508 1.14244 9.62609C1.15225 8.82626 1.22347 8.02833 1.35547 7.2392C1.47829 6.50164 1.71414 5.787 2.05487 5.12003C2.39045 4.45998 2.83163 3.85807 3.36129 3.33764C3.89035 2.81227 4.49932 2.37237 5.16601 2.03399C5.83617 1.69852 6.55342 1.46473 7.29372 1.34047C8.09188 1.21114 8.89869 1.14122 9.70738 1.13129L10.8686 1.11572H143.125L144.3 1.13192C145.102 1.14135 145.901 1.21065 146.692 1.33922C147.44 1.46504 148.164 1.70046 148.842 2.03773C150.178 2.71965 151.265 3.79853 151.95 5.12314C152.285 5.78551 152.518 6.49432 152.639 7.22551C152.773 8.02111 152.847 8.82531 152.863 9.6317C152.866 9.99278 152.866 10.3806 152.866 10.7666C152.877 11.2448 152.877 11.6998 152.877 12.1587V38.8427C152.877 39.3059 152.877 39.7579 152.866 40.2136C152.866 40.6282 152.866 41.0081 152.861 41.399C152.846 42.191 152.773 42.9808 152.641 43.7622C152.521 44.503 152.287 45.2212 151.946 45.8914C151.607 46.5448 151.166 47.141 150.639 47.6582C150.114 48.1858 149.506 48.626 148.838 48.9619C148.163 49.301 147.439 49.5373 146.692 49.6629C145.896 49.7916 145.092 49.8611 144.286 49.8708C143.909 49.8795 143.515 49.8845 143.131 49.8845L141.736 49.887L10.868 49.8845Z" fill="black"/>
<path d="M31.876 25.8835C31.8898 24.8193 32.1751 23.7758 32.7054 22.8502C33.2356 21.9246 33.9936 21.147 34.9087 20.5896C34.3273 19.767 33.5604 19.0901 32.6688 18.6125C31.7772 18.1349 30.7854 17.8699 29.7723 17.8385C27.6113 17.6138 25.5162 19.1197 24.4149 19.1197C23.2924 19.1197 21.5969 17.8609 19.771 17.8981C18.59 17.9359 17.4391 18.2761 16.4303 18.8856C15.4215 19.4952 14.5893 20.3532 14.0147 21.3761C11.5257 25.6453 13.3823 31.9197 15.7665 35.3706C16.9593 37.0604 18.3534 38.948 20.1776 38.8811C21.9627 38.8077 22.6293 37.7534 24.7841 37.7534C26.9188 37.7534 27.5443 38.8811 29.4054 38.8385C31.3209 38.8077 32.5277 37.1412 33.6787 35.4354C34.5358 34.2313 35.1953 32.9005 35.6328 31.4924C34.52 31.0261 33.5704 30.2456 32.9023 29.2481C32.2342 28.2507 31.8773 27.0805 31.876 25.8835Z" fill="white"/>
<path d="M28.3605 15.5689C29.4049 14.3268 29.9194 12.7303 29.7948 11.1184C28.1992 11.2844 26.7253 12.04 25.6668 13.2344C25.1493 13.8179 24.7529 14.4968 24.5004 15.2322C24.2478 15.9676 24.1441 16.745 24.195 17.5202C24.993 17.5283 25.7826 17.3569 26.5041 17.019C27.2257 16.681 27.8604 16.1852 28.3605 15.5689Z" fill="white"/>
<path d="M54.4403 34.603H48.3487L46.8858 38.8825H44.3057L50.0755 23.0496H52.7562L58.5261 38.8825H55.9019L54.4403 34.603ZM48.9796 32.6283H53.8082L51.4279 25.683H51.3612L48.9796 32.6283Z" fill="white"/>
<path d="M70.9869 33.1113C70.9869 36.6985 69.049 39.0032 66.1245 39.0032C65.3836 39.0416 64.6469 38.8726 63.9985 38.5154C63.3502 38.1582 62.8164 37.6274 62.4585 36.9836H62.4031V42.7012H60.0115V27.339H62.3265V29.2589H62.3705C62.7449 28.6183 63.2877 28.0902 63.9409 27.7309C64.5942 27.3715 65.3336 27.1943 66.0805 27.2182C69.0376 27.2182 70.9869 29.5341 70.9869 33.1113ZM68.5287 33.1113C68.5287 30.7743 67.3096 29.2378 65.4496 29.2378C63.6222 29.2378 62.3931 30.8066 62.3931 33.1113C62.3931 35.4372 63.6222 36.9949 65.4496 36.9949C67.3096 36.9949 68.5287 35.4696 68.5287 33.1113Z" fill="white"/>
<path d="M83.8111 33.1113C83.8111 36.6985 81.8732 39.0032 78.9487 39.0032C78.2078 39.0416 77.4711 38.8725 76.8227 38.5154C76.1744 38.1582 75.6407 37.6274 75.2827 36.9836H75.2273V42.7012H72.8357V27.339H75.1507V29.2589H75.1946C75.5691 28.6183 76.1118 28.0902 76.7651 27.7308C77.4184 27.3715 78.1578 27.1943 78.9047 27.2182C81.8619 27.2182 83.8111 29.5341 83.8111 33.1113ZM81.3529 33.1113C81.3529 30.7743 80.1338 29.2378 78.2738 29.2378C76.4464 29.2378 75.2173 30.8066 75.2173 33.1113C75.2173 35.4372 76.4464 36.9949 78.2738 36.9949C80.1338 36.9949 81.3529 35.4696 81.3529 33.1113H81.3529Z" fill="white"/>
<path d="M92.2869 34.4711C92.4641 36.0412 94.0036 37.0721 96.1074 37.0721C98.1233 37.0721 99.5736 36.0412 99.5736 34.6255C99.5736 33.3965 98.6989 32.6607 96.6277 32.1564L94.5566 31.6621C91.622 30.9598 90.2597 29.6002 90.2597 27.3938C90.2597 24.662 92.6626 22.7856 96.0748 22.7856C99.4517 22.7856 101.767 24.662 101.845 27.3938H99.4303C99.2858 25.8138 97.9674 24.86 96.0408 24.86C94.1142 24.86 92.7958 25.825 92.7958 27.2295C92.7958 28.3488 93.6379 29.0075 95.6977 29.5117L97.4584 29.9401C100.737 30.7083 102.1 32.0132 102.1 34.3291C102.1 37.2912 99.7181 39.1464 95.9302 39.1464C92.3861 39.1464 89.9932 37.3348 89.8386 34.471L92.2869 34.4711Z" fill="white"/>
<path d="M107.261 24.6074V27.3392H109.477V29.2156H107.261V35.5794C107.261 36.568 107.705 37.0287 108.679 37.0287C108.942 37.0242 109.204 37.0059 109.466 36.9739V38.8391C109.028 38.9201 108.583 38.9569 108.137 38.9486C105.778 38.9486 104.858 38.0708 104.858 35.8321V29.2156H103.164V27.3392H104.858V24.6074H107.261Z" fill="white"/>
<path d="M110.76 33.1116C110.76 29.4796 112.919 27.1973 116.286 27.1973C119.664 27.1973 121.813 29.4795 121.813 33.1116C121.813 36.7535 119.676 39.0259 116.286 39.0259C112.898 39.0259 110.76 36.7535 110.76 33.1116ZM119.376 33.1116C119.376 30.6201 118.224 29.1496 116.286 29.1496C114.348 29.1496 113.197 30.6313 113.197 33.1116C113.197 35.613 114.348 37.0723 116.286 37.0723C118.224 37.0723 119.376 35.613 119.376 33.1116H119.376Z" fill="white"/>
<path d="M123.785 27.3391H126.066V29.3039H126.122C126.276 28.6902 126.639 28.1479 127.149 27.7681C127.659 27.3883 128.286 27.1942 128.924 27.2183C129.2 27.2174 129.475 27.247 129.744 27.3067V29.523C129.396 29.4177 129.033 29.3693 128.669 29.3798C128.322 29.3659 127.975 29.4266 127.654 29.5578C127.332 29.6889 127.043 29.8875 126.806 30.1398C126.569 30.3921 126.391 30.6922 126.282 31.0195C126.173 31.3467 126.137 31.6934 126.177 32.0357V38.8826H123.785L123.785 27.3391Z" fill="white"/>
<path d="M140.771 35.4922C140.449 37.5878 138.389 39.0259 135.754 39.0259C132.364 39.0259 130.26 36.7759 130.26 33.1664C130.26 29.5456 132.375 27.1973 135.653 27.1973C138.877 27.1973 140.904 29.3912 140.904 32.8912V33.703H132.675V33.8462C132.637 34.271 132.69 34.699 132.832 35.1017C132.974 35.5044 133.2 35.8726 133.497 36.1818C133.793 36.4911 134.153 36.7343 134.551 36.8953C134.95 37.0564 135.379 37.1315 135.809 37.1159C136.374 37.1683 136.941 37.0386 137.426 36.7461C137.911 36.4536 138.287 36.0138 138.5 35.4922L140.771 35.4922ZM132.686 32.047H138.511C138.532 31.665 138.474 31.2828 138.339 30.9242C138.205 30.5657 137.996 30.2386 137.728 29.9635C137.46 29.6884 137.137 29.4712 136.78 29.3256C136.423 29.1799 136.039 29.109 135.653 29.1172C135.264 29.1149 134.878 29.1891 134.517 29.3354C134.157 29.4817 133.829 29.6972 133.553 29.9696C133.277 30.242 133.059 30.5658 132.91 30.9224C132.761 31.2789 132.685 31.6611 132.686 32.047V32.047Z" fill="white"/>
<path d="M45.9062 18.7397V11.1321H48.9929C50.4357 11.1321 51.3028 11.8592 51.3028 13.0296C51.3032 13.4141 51.1694 13.7869 50.9241 14.0848C50.6788 14.3828 50.3371 14.5875 49.9568 14.6645V14.7541C50.4286 14.7762 50.8731 14.9796 51.196 15.3211C51.5189 15.6626 51.6947 16.1154 51.6862 16.5832C51.6862 17.9223 50.7021 18.7397 49.062 18.7397L45.9062 18.7397ZM47.0989 14.3531H48.5141C49.5685 14.3531 50.1165 13.9684 50.1165 13.2462C50.1165 12.5446 49.5999 12.1337 48.7164 12.1337H47.0989V14.3531ZM48.8232 17.738C49.8978 17.738 50.4671 17.3053 50.4671 16.4991C50.4671 15.7029 49.8764 15.2864 48.7541 15.2864H47.0989V17.738H48.8232Z" fill="white"/>
<path d="M52.9116 17.1161C52.9116 16.0827 53.6883 15.4869 55.067 15.4022L56.6367 15.3126V14.817C56.6367 14.2106 56.232 13.8682 55.4503 13.8682C54.8119 13.8682 54.3695 14.1004 54.2425 14.5063H53.1353C53.2522 13.5202 54.1885 12.8877 55.5031 12.8877C56.9559 12.8877 57.7753 13.6042 57.7753 14.817V18.7397H56.6744V17.9329H56.5839C56.4003 18.2223 56.1423 18.4583 55.8365 18.6166C55.5307 18.775 55.188 18.8501 54.8433 18.8343C54.6 18.8594 54.3541 18.8337 54.1215 18.7588C53.8889 18.684 53.6747 18.5617 53.4927 18.3998C53.3107 18.2379 53.1649 18.0401 53.0649 17.819C52.9648 17.5978 52.9126 17.3584 52.9116 17.1161ZM56.6367 16.6255V16.1455L55.2216 16.2352C54.4235 16.2881 54.0616 16.557 54.0616 17.0632C54.0616 17.5799 54.514 17.8806 55.1362 17.8806C55.3184 17.8989 55.5026 17.8806 55.6776 17.827C55.8526 17.7733 56.015 17.6853 56.155 17.5682C56.295 17.4511 56.4098 17.3073 56.4925 17.1454C56.5753 16.9834 56.6243 16.8066 56.6367 16.6255Z" fill="white"/>
<path d="M59.4166 11.3009C59.4078 11.1541 59.4436 11.0081 59.5195 10.8818C59.5954 10.7555 59.7079 10.6546 59.8423 10.5923C59.9767 10.53 60.1269 10.5092 60.2734 10.5324C60.4199 10.5557 60.556 10.622 60.6641 10.7228C60.7721 10.8235 60.8471 10.9541 60.8794 11.0976C60.9117 11.2411 60.8997 11.3909 60.845 11.5276C60.7904 11.6643 60.6956 11.7815 60.5729 11.8642C60.4502 11.9469 60.3052 11.9912 60.1568 11.9913C60.062 11.9961 59.9672 11.9818 59.878 11.9494C59.7889 11.9169 59.7073 11.8669 59.6381 11.8024C59.569 11.738 59.5137 11.6603 59.4756 11.5741C59.4376 11.4879 59.4175 11.395 59.4166 11.3009ZM59.5863 12.9986H60.7262V18.7398H59.5862L59.5863 12.9986Z" fill="white"/>
<path d="M64.651 16.7046L63.3842 18.7398H62.1286L64.0502 15.8822L62.1123 12.9985H63.4483L64.6937 15.0231H64.7842L66.0184 12.9985H67.2902L65.3799 15.8349L67.3116 18.7398H65.9982L64.7364 16.7046H64.651Z" fill="white"/>
<path d="M68.3208 17.1161C68.3208 16.0827 69.0975 15.4869 70.4762 15.4022L72.0459 15.3126V14.817C72.0459 14.2106 71.6412 13.8682 70.8595 13.8682C70.2211 13.8682 69.7787 14.1004 69.6517 14.5063H68.5445C68.6614 13.5202 69.5977 12.8877 70.9123 12.8877C72.3651 12.8877 73.1845 13.6042 73.1845 14.817V18.7397H72.0836V17.9329H71.9931C71.8094 18.2223 71.5515 18.4583 71.2457 18.6166C70.9399 18.775 70.5972 18.8501 70.2525 18.8343C70.0092 18.8594 69.7633 18.8337 69.5307 18.7588C69.2981 18.684 69.0838 18.5617 68.9018 18.3998C68.7199 18.2379 68.5741 18.0401 68.474 17.819C68.374 17.5978 68.3218 17.3584 68.3208 17.1161ZM72.0459 16.6255V16.1455L70.6307 16.2352C69.8327 16.2881 69.4707 16.557 69.4707 17.0632C69.4707 17.5799 69.9232 17.8806 70.5453 17.8806C70.7276 17.8989 70.9118 17.8806 71.0868 17.827C71.2618 17.7733 71.4242 17.6853 71.5642 17.5682C71.7042 17.4511 71.819 17.3073 71.9017 17.1454C71.9845 16.9834 72.0335 16.8066 72.0459 16.6255Z" fill="white"/>
<path d="M74.9753 12.9987H76.0763V13.879H76.1617C76.285 13.5734 76.5028 13.3144 76.7839 13.1391C77.0651 12.9638 77.395 12.8813 77.7264 12.9034C77.8977 12.9011 78.0688 12.917 78.2367 12.9507V14.0689C78.0268 14.0245 77.8129 14.0015 77.5982 14.0004C77.4096 13.9837 77.2195 14.0061 77.0402 14.0665C76.8609 14.1268 76.6962 14.2236 76.5569 14.3508C76.4176 14.4779 76.3067 14.6324 76.2313 14.8046C76.1559 14.9767 76.1176 15.1625 76.119 15.3501V18.74H74.9754L74.9753 12.9987Z" fill="white"/>
<path d="M82.6443 12.9986H83.7459V13.9106H83.8314C83.9763 13.583 84.2209 13.3084 84.5309 13.1251C84.8408 12.9417 85.2008 12.8588 85.5607 12.8877C85.8427 12.8667 86.1258 12.9088 86.3891 13.011C86.6524 13.1131 86.8891 13.2726 87.0818 13.4777C87.2744 13.6828 87.418 13.9281 87.5019 14.1957C87.5858 14.4632 87.6079 14.746 87.5665 15.0231V18.7397H86.4228V15.3076C86.4228 14.385 86.0182 13.9262 85.1723 13.9262C84.9809 13.9173 84.7898 13.9496 84.6121 14.0208C84.4345 14.092 84.2744 14.2004 84.143 14.3386C84.0116 14.4768 83.9119 14.6415 83.8507 14.8214C83.7895 15.0014 83.7684 15.1923 83.7886 15.3811V18.7398H82.6443L82.6443 12.9986Z" fill="white"/>
<path d="M89.0054 17.1161C89.0054 16.0827 89.7821 15.4869 91.1607 15.4022L92.7305 15.3126V14.817C92.7305 14.2106 92.3258 13.8682 91.5441 13.8682C90.9056 13.8682 90.4632 14.1004 90.3363 14.5063H89.2291C89.346 13.5202 90.2823 12.8877 91.5968 12.8877C93.0497 12.8877 93.8691 13.6042 93.8691 14.817V18.7397H92.7682V17.9329H92.6777C92.494 18.2223 92.2361 18.4583 91.9303 18.6166C91.6245 18.775 91.2817 18.8501 90.937 18.8343C90.6938 18.8594 90.4479 18.8337 90.2153 18.7588C89.9826 18.684 89.7684 18.5617 89.5864 18.3998C89.4044 18.2379 89.2587 18.0401 89.1586 17.819C89.0585 17.5978 89.0063 17.3584 89.0054 17.1161ZM92.7305 16.6255V16.1455L91.3153 16.2352C90.5173 16.2881 90.1553 16.557 90.1553 17.0632C90.1553 17.5799 90.6078 17.8806 91.2299 17.8806C91.4122 17.8989 91.5963 17.8806 91.7714 17.827C91.9464 17.7733 92.1087 17.6853 92.2487 17.5682C92.3887 17.4511 92.5035 17.3073 92.5863 17.1454C92.6691 16.9834 92.7181 16.8066 92.7305 16.6255H92.7305Z" fill="white"/>
</svg>
