<svg width="114" height="101" viewBox="0 0 114 101" fill="none" xmlns="http://www.w3.org/2000/svg">
<path d="M27.5256 26.4921L54.0205 0C39.7318 0.783425 28.3091 12.2256 27.5256 26.4921Z" fill="#0071CE"/>
<path d="M83.6907 28.0591C83.6907 27.9354 83.6907 27.8117 83.6907 27.7086H61.0516L55.9176 22.5751H83.134C82.6392 20.0393 81.7938 17.6478 80.6598 15.4006H56.4742L61.6083 10.2671H77.3402C74.9691 7.36018 72.0206 4.94805 68.6804 3.19566C68.6186 3.17504 68.5567 3.13381 68.4949 3.11319C66.2268 1.93805 63.7938 1.05154 61.2165 0.536133L28.0413 33.6874C28.3093 35.0068 28.6804 36.3057 29.134 37.5633C29.567 38.8003 30.1031 39.996 30.7217 41.1505C35.1547 49.5414 43.6907 55.4171 53.6701 56.0769L34.7423 37.151L38.6186 33.2751L60.9897 55.6439C63.6495 55.1285 66.1856 54.242 68.5155 53.0256L43.6701 28.2034L47.5464 24.3275L73.1753 49.9538C75.0516 48.4488 76.7217 46.717 78.1444 44.7997L68.2062 34.8625H82.8454C83.3815 32.6772 83.6907 30.4094 83.6907 28.0591Z" fill="#0071CE"/>
<path d="M110.515 70.6112V72.2811H110V70.6112H109.402V70.1782H111.113V70.6112H110.515Z" fill="#010101"/>
<path d="M113.485 72.2811L113.505 70.7761H113.485L112.948 72.2811H112.598L112.062 70.7761H112.041L112.062 72.2811H111.588V70.1782H112.309L112.784 71.5183H112.804L113.258 70.1782H114V72.2811H113.485Z" fill="#010101"/>
<path d="M0 77.2087C0 76.0747 0.206186 75.0645 0.597938 74.1368C0.989691 73.2297 1.54639 72.4463 2.2268 71.7865C2.90722 71.1474 3.73196 70.632 4.65979 70.2815C5.58763 69.931 6.59794 69.7661 7.64948 69.7661C8.74227 69.7661 9.77319 69.931 10.7216 70.2815C11.6907 70.632 12.4948 71.1062 13.1546 71.7041L10.2474 75.2089C9.97938 74.8584 9.64948 74.611 9.25773 74.4254C8.86598 74.2399 8.41237 74.1574 7.91753 74.1574C7.52577 74.1574 7.15464 74.2193 6.80412 74.3636C6.47423 74.5079 6.18557 74.7141 5.91753 74.9821C5.6701 75.2501 5.46392 75.58 5.31959 75.951C5.17526 76.3221 5.09278 76.7551 5.09278 77.2087C5.09278 77.6828 5.17526 78.0952 5.31959 78.4456C5.46392 78.7961 5.6701 79.126 5.93814 79.394C6.18557 79.662 6.49484 79.8682 6.84536 79.9919C7.19588 80.1362 7.54639 80.198 7.93814 80.198C8.47423 80.198 8.94845 80.095 9.34021 79.8682C9.73196 79.6414 10.0412 79.3734 10.268 79.0641L13.1753 82.5483C12.5361 83.1874 11.7526 83.6822 10.8247 84.0739C9.89691 84.445 8.84536 84.6306 7.6701 84.6306C6.61856 84.6306 5.60825 84.445 4.68041 84.0945C3.75258 83.7441 2.92783 83.2287 2.24742 82.5689C1.54639 81.9092 1.01031 81.1258 0.618557 80.2187C0.206186 79.3321 0 78.3219 0 77.2087Z" fill="#010101"/>
<path d="M15.7319 77.1261C15.7319 75.9922 15.9381 74.982 16.3299 74.0748C16.7216 73.1677 17.2783 72.3843 17.9794 71.7658C18.6804 71.1267 19.5051 70.6319 20.4536 70.302C21.402 69.9516 22.433 69.7866 23.567 69.7866C24.6804 69.7866 25.7113 69.9516 26.6598 70.302C27.6082 70.6525 28.4536 71.1267 29.1546 71.7658C29.8556 72.4049 30.4123 73.1677 30.8041 74.0748C31.1958 74.982 31.402 75.9922 31.402 77.1261C31.402 78.26 31.1958 79.2908 30.8041 80.2185C30.4123 81.1463 29.8556 81.9297 29.1546 82.5894C28.4536 83.2492 27.6288 83.7646 26.6598 84.1151C25.7113 84.4655 24.6804 84.6511 23.567 84.6511C22.4536 84.6511 21.4227 84.4655 20.4536 84.1151C19.5051 83.7646 18.6804 83.2492 17.9794 82.5894C17.2783 81.9297 16.7422 81.1463 16.3299 80.2185C15.9175 79.2908 15.7319 78.26 15.7319 77.1261ZM20.7629 77.1261C20.7629 77.6003 20.8247 78.0126 20.969 78.4043C21.1134 78.796 21.2989 79.1259 21.5464 79.3939C21.7938 79.6825 22.0824 79.8887 22.433 80.033C22.7835 80.1773 23.1546 80.2598 23.5464 80.2598C23.9381 80.2598 24.3093 80.1773 24.6598 80.033C24.9897 79.8887 25.2989 79.6619 25.5464 79.3939C25.7938 79.1259 26 78.7754 26.1443 78.4043C26.2886 78.0126 26.3505 77.6003 26.3505 77.1261C26.3505 76.6725 26.2886 76.2602 26.1443 75.8891C26 75.518 25.8144 75.1881 25.5464 74.9407C25.2989 74.6933 25.0103 74.4872 24.6598 74.3429C24.3093 74.1985 23.9587 74.1161 23.5464 74.1161C23.1546 74.1161 22.7835 74.1779 22.433 74.3429C22.0824 74.4872 21.7938 74.6933 21.5464 74.9407C21.2989 75.2087 21.1134 75.518 20.969 75.8891C20.8247 76.2602 20.7629 76.6725 20.7629 77.1261Z" fill="#010101"/>
<path d="M34.9897 70.1782H41.0516C41.7526 70.1782 42.433 70.2401 43.1135 70.3844C43.7939 70.5287 44.4124 70.7761 44.9485 71.1266C45.4846 71.4771 45.9176 71.9512 46.2475 72.5285C46.5774 73.1264 46.7423 73.8479 46.7423 74.7551C46.7423 75.621 46.5361 76.3838 46.1031 77.0435C45.6702 77.7032 45.0722 78.198 44.2681 78.5691L47.8351 84.2799H42.3918L39.6908 79.2495H39.5877V84.2799H34.9897V70.1782ZM39.5464 76.1158H40.4743C40.6392 76.1158 40.8042 76.0951 40.9897 76.0745C41.1753 76.0539 41.3609 75.9921 41.5258 75.9096C41.6908 75.8271 41.8351 75.7034 41.9382 75.5591C42.0413 75.4148 42.1031 75.2086 42.1031 74.9612C42.1031 74.7138 42.0619 74.5077 41.9588 74.3634C41.8763 74.219 41.7526 74.116 41.6083 74.0335C41.464 73.951 41.299 73.9098 41.1341 73.8892C40.9691 73.8686 40.8042 73.8686 40.6598 73.8686H39.5258V76.1158H39.5464Z" fill="#010101"/>
<path d="M58.763 84.2593H54.0413V74.1778H50.5774V70.1782H62.2269V74.1778H58.763V84.2593Z" fill="#010101"/>
<path d="M66.4741 70.1782H76.1648V74.116H70.9277V75.3117H75.8556V79.0021H70.9277V80.3215H76.5154V84.2593H66.4741V70.1782Z" fill="#010101"/>
<path d="M79.6494 70.1782H84.9896L87.3195 78.8784H87.402L89.6288 70.1782H94.9896L89.8968 84.2593H84.6391L79.6494 70.1782Z" fill="#010101"/>
<path d="M100.68 70.1782H105.711L111.196 84.2593H106.041L105.299 82.1976H100.825L100.124 84.2593H95.1133L100.68 70.1782ZM103.134 75.0849L101.979 78.5691H104.268L103.134 75.0849Z" fill="#010101"/>
<path d="M27.4434 92.2585V98.3816H26.1239V97.5157C25.6496 98.1754 24.928 98.5671 23.9795 98.5671C22.3094 98.5671 20.928 97.1652 20.928 95.3509C20.928 93.5161 22.3094 92.1348 23.9795 92.1348C24.928 92.1348 25.6702 92.5265 26.1239 93.1656V92.2997H27.4434V92.2585ZM26.1239 95.3303C26.1239 94.1964 25.2991 93.3718 24.1857 93.3718C23.0723 93.3718 22.2476 94.1964 22.2476 95.3303C22.2476 96.4642 23.0723 97.2889 24.1857 97.2889C25.2785 97.2889 26.1239 96.4642 26.1239 95.3303Z" fill="#010101"/>
<path d="M35.6701 92.2586V98.1136C35.6701 100.093 34.1237 101 32.5155 101C31.1753 101 30.1237 100.505 29.6083 99.5156L30.7423 98.8558C31.0103 99.3919 31.4639 99.8042 32.5361 99.8042C33.6701 99.8042 34.3711 99.1857 34.3711 98.1136V97.3714C33.8969 98.0312 33.1753 98.4435 32.2268 98.4435C30.4949 98.4435 29.134 97.0416 29.134 95.2686C29.134 93.5162 30.4949 92.1143 32.2268 92.1143C33.1753 92.1143 33.8969 92.5266 34.3711 93.1863V92.2792H35.6701V92.2586ZM34.3711 95.2686C34.3711 94.1759 33.5464 93.3512 32.4124 93.3512C31.299 93.3512 30.4536 94.1759 30.4536 95.2686C30.4536 96.3819 31.2784 97.1859 32.4124 97.1859C33.5258 97.1859 34.3711 96.3612 34.3711 95.2686Z" fill="#010101"/>
<path d="M40.9072 92.1558V93.5989C40.0412 93.5371 39.0103 93.9494 39.0103 95.3101V98.4025H37.6907V92.2795H39.0103V93.3103C39.402 92.465 40.1443 92.1558 40.9072 92.1558Z" fill="#010101"/>
<path d="M42.2061 90.5064C42.2061 90.0322 42.5772 89.6611 43.0514 89.6611C43.5256 89.6611 43.8968 90.0322 43.8968 90.5064C43.8968 90.96 43.5256 91.3517 43.0514 91.3517C42.5772 91.3517 42.2061 90.96 42.2061 90.5064ZM42.3916 92.2588H43.7112V98.3819H42.3916V92.2588Z" fill="#010101"/>
<path d="M50.1854 96.6705C50.1854 97.9075 49.1133 98.5672 47.7937 98.5672C46.5566 98.5672 45.6906 98.0106 45.2988 97.1241L46.4329 96.4643C46.639 97.021 47.1133 97.3508 47.7937 97.3508C48.3916 97.3508 48.8452 97.1447 48.8452 96.6705C48.8452 95.5778 45.5463 96.1963 45.5463 93.9904C45.5463 92.8358 46.5359 92.1143 47.7937 92.1143C48.804 92.1143 49.6287 92.5884 50.0617 93.3925L48.9483 94.011C48.7215 93.5368 48.2885 93.31 47.7937 93.31C47.3194 93.31 46.9071 93.5162 46.9071 93.9697C46.8865 95.0624 50.1854 94.4027 50.1854 96.6705Z" fill="#010101"/>
<path d="M51.3403 95.3304C51.3403 93.4956 52.7218 92.1143 54.5774 92.1143C55.7733 92.1143 56.8249 92.7328 57.3197 93.7017L56.1857 94.3615C55.9177 93.7842 55.3197 93.4131 54.5774 93.4131C53.5053 93.4131 52.6805 94.2378 52.6805 95.3304C52.6805 96.4437 53.5053 97.2478 54.5774 97.2478C55.3197 97.2478 55.9177 96.8767 56.2063 96.2994L57.3403 96.9591C56.8249 97.9281 55.7733 98.5466 54.5774 98.5466C52.7218 98.5466 51.3403 97.1447 51.3403 95.3304Z" fill="#010101"/>
<path d="M58.6187 90.5064C58.6187 90.0322 58.9898 89.6611 59.464 89.6611C59.9382 89.6611 60.3094 90.0322 60.3094 90.5064C60.3094 90.96 59.9382 91.3517 59.464 91.3517C58.9898 91.3517 58.6187 90.96 58.6187 90.5064ZM58.7836 92.2588H60.1032V98.3819H58.7836V92.2588Z" fill="#010101"/>
<path d="M65.1547 97.3302C65.8969 97.3302 66.433 97.0004 66.7423 96.5674L67.8351 97.2065C67.2784 98.0312 66.3505 98.5466 65.1547 98.5466C63.134 98.5466 61.8145 97.1653 61.8145 95.3304C61.8145 93.5162 63.134 92.1143 65.0516 92.1143C66.8866 92.1143 68.1237 93.578 68.1237 95.351C68.1237 95.5366 68.1031 95.7221 68.0825 95.9077H63.1959C63.3815 96.856 64.165 97.3302 65.1547 97.3302ZM66.7835 94.815C66.598 93.7636 65.8351 93.31 65.031 93.31C64.0413 93.31 63.3608 93.9079 63.1753 94.815H66.7835Z" fill="#010101"/>
<path d="M75.3607 94.6295V98.4023H74.0205V94.7738C74.0205 93.846 73.4844 93.3512 72.639 93.3512C71.7731 93.3512 71.072 93.8667 71.072 95.1243V98.4023H69.7524V92.2792H71.072V93.0626C71.4844 92.4235 72.1442 92.1143 72.9689 92.1143C74.371 92.1143 75.3607 93.042 75.3607 94.6295Z" fill="#010101"/>
<path d="M76.928 95.3304C76.928 93.4956 78.3094 92.1143 80.1651 92.1143C81.361 92.1143 82.4125 92.7328 82.9074 93.7017L81.7733 94.3615C81.5053 93.7842 80.9074 93.4131 80.1651 93.4131C79.0929 93.4131 78.2682 94.2378 78.2682 95.3304C78.2682 96.4437 79.0929 97.2478 80.1651 97.2478C80.9074 97.2478 81.5053 96.8767 81.794 96.2994L82.928 96.9591C82.4125 97.9281 81.361 98.5466 80.1651 98.5466C78.3094 98.5466 76.928 97.1447 76.928 95.3304Z" fill="#010101"/>
<path d="M87.2782 97.3302C88.0205 97.3302 88.5565 97.0004 88.8658 96.5674L89.9586 97.2065C89.4019 98.0312 88.4741 98.5466 87.2782 98.5466C85.2576 98.5466 83.938 97.1653 83.938 95.3304C83.938 93.5162 85.2576 92.1143 87.1751 92.1143C89.0102 92.1143 90.2473 93.578 90.2473 95.351C90.2473 95.5366 90.2266 95.7221 90.206 95.9077H85.3194C85.5256 96.856 86.2885 97.3302 87.2782 97.3302ZM88.9071 94.815C88.7215 93.7636 87.9586 93.31 87.1545 93.31C86.1648 93.31 85.4844 93.9079 85.2988 94.815H88.9071Z" fill="#010101"/>
</svg>
