<svg width="167" height="49" viewBox="0 0 167 49" fill="none" xmlns="http://www.w3.org/2000/svg">
<path d="M160.815 49H6.18519C2.72148 49 0 46.305 0 42.875V6.125C0 2.695 2.72148 0 6.18519 0H160.815C164.279 0 167 2.695 167 6.125V42.875C167 46.1825 164.279 49 160.815 49Z" fill="black"/>
<path d="M84.2425 26.7053C81.2736 26.7053 78.9233 28.9103 78.9233 31.9728C78.9233 34.9128 81.2736 37.2403 84.2425 37.2403C87.2114 37.2403 89.5618 35.0353 89.5618 31.9728C89.5618 28.7878 87.2114 26.7053 84.2425 26.7053ZM84.2425 35.0353C82.6344 35.0353 81.2736 33.6878 81.2736 31.8503C81.2736 30.0128 82.6344 28.6653 84.2425 28.6653C85.8507 28.6653 87.2114 29.8903 87.2114 31.8503C87.2114 33.6878 85.8507 35.0353 84.2425 35.0353ZM72.7381 26.7053C69.7692 26.7053 67.4188 28.9103 67.4188 31.9728C67.4188 34.9128 69.7692 37.2403 72.7381 37.2403C75.707 37.2403 78.0573 35.0353 78.0573 31.9728C78.0573 28.7878 75.707 26.7053 72.7381 26.7053ZM72.7381 35.0353C71.1299 35.0353 69.7692 33.6878 69.7692 31.8503C69.7692 30.0128 71.1299 28.6653 72.7381 28.6653C74.3462 28.6653 75.707 29.8903 75.707 31.8503C75.707 33.6878 74.3462 35.0353 72.7381 35.0353ZM59.007 28.2978V30.5028H64.3262C64.2025 31.7278 63.7077 32.7078 63.0892 33.3203C62.347 34.0553 61.1099 34.9128 59.007 34.9128C55.667 34.9128 53.1929 32.3403 53.1929 29.0328C53.1929 25.7253 55.7907 23.1528 59.007 23.1528C60.7388 23.1528 62.0996 23.8878 63.0892 24.7453L64.6973 23.1528C63.3366 21.9278 61.6048 20.9478 59.1307 20.9478C54.6773 20.9478 50.8425 24.6228 50.8425 29.0328C50.8425 33.4428 54.6773 37.1178 59.1307 37.1178C61.6048 37.1178 63.3366 36.3828 64.8211 34.7903C66.3055 33.3203 66.8003 31.2378 66.8003 29.6453C66.8003 29.1553 66.8003 28.6653 66.6766 28.2978H59.007ZM115.168 30.0128C114.674 28.7878 113.437 26.7053 110.715 26.7053C107.994 26.7053 105.767 28.7878 105.767 31.9728C105.767 34.9128 107.994 37.2403 110.963 37.2403C113.313 37.2403 114.797 35.7703 115.292 34.9128L113.56 33.6878C112.942 34.5453 112.2 35.1578 110.963 35.1578C109.725 35.1578 108.983 34.6678 108.365 33.5653L115.416 30.6253L115.168 30.0128ZM107.994 31.7278C107.994 29.7678 109.602 28.6653 110.715 28.6653C111.581 28.6653 112.447 29.1553 112.694 29.7678L107.994 31.7278ZM102.18 36.7503H104.53V21.4378H102.18V36.7503ZM98.4685 27.8078C97.8499 27.1953 96.8603 26.5828 95.6233 26.5828C93.0255 26.5828 90.5514 28.9103 90.5514 31.8503C90.5514 34.7903 92.9018 36.9953 95.6233 36.9953C96.8603 36.9953 97.8499 36.3828 98.3447 35.7703H98.4685V36.5053C98.4685 38.4653 97.3551 39.5678 95.6233 39.5678C94.2625 39.5678 93.2729 38.5878 93.0255 37.7303L91.0462 38.5878C91.6647 39.9353 93.1492 41.6503 95.747 41.6503C98.4685 41.6503 100.695 40.0578 100.695 36.2603V26.9503H98.4685V27.8078ZM95.747 35.0353C94.1388 35.0353 92.7781 33.6878 92.7781 31.8503C92.7781 30.0128 94.1388 28.6653 95.747 28.6653C97.3551 28.6653 98.5922 30.0128 98.5922 31.8503C98.5922 33.6878 97.3551 35.0353 95.747 35.0353ZM125.931 21.4378H120.364V36.7503H122.714V30.9928H125.931C128.528 30.9928 131.003 29.1553 131.003 26.2153C131.003 23.2753 128.528 21.4378 125.931 21.4378ZM126.054 28.7878H122.714V23.5203H126.054C127.786 23.5203 128.776 24.9903 128.776 26.0928C128.652 27.4403 127.663 28.7878 126.054 28.7878ZM140.28 26.5828C138.548 26.5828 136.817 27.3178 136.198 28.9103L138.301 29.7678C138.796 28.9103 139.538 28.6653 140.404 28.6653C141.641 28.6653 142.754 29.4003 142.878 30.6253V30.7478C142.507 30.5028 141.517 30.1353 140.528 30.1353C138.301 30.1353 136.074 31.3603 136.074 33.5653C136.074 35.6478 137.93 36.9953 139.909 36.9953C141.517 36.9953 142.26 36.2603 142.878 35.5253H143.002V36.7503H145.228V30.8703C144.981 28.1753 142.878 26.5828 140.28 26.5828ZM140.033 35.0353C139.291 35.0353 138.177 34.6678 138.177 33.6878C138.177 32.4628 139.538 32.0953 140.651 32.0953C141.641 32.0953 142.136 32.3403 142.754 32.5853C142.507 34.0553 141.27 35.0353 140.033 35.0353ZM153.022 26.9503L150.424 33.5653H150.3L147.579 26.9503H145.105L149.187 36.2603L146.837 41.4053H149.187L155.496 26.9503H153.022ZM132.24 36.7503H134.59V21.4378H132.24V36.7503Z" fill="white"/>
<path d="M12.8651 9.1875C12.494 9.555 12.2466 10.1675 12.2466 10.9025V37.975C12.2466 38.71 12.494 39.3225 12.8651 39.69L12.9888 39.8125L28.3281 24.6225V24.5V24.3775L12.8651 9.1875Z" fill="url(#paint0_linear_2292_223)"/>
<path d="M33.4002 29.7672L28.3284 24.7447V24.4997V24.3772L33.4002 19.3547L33.5239 19.4772L39.5854 22.9072C41.3173 23.8872 41.3173 25.4797 39.5854 26.4597L33.4002 29.7672Z" fill="url(#paint1_linear_2292_223)"/>
<path d="M33.5235 29.6452L28.328 24.5002L12.865 39.8127C13.4835 40.4252 14.3494 40.4252 15.4628 39.9352L33.5235 29.6452Z" fill="url(#paint2_linear_2292_223)"/>
<path d="M33.5235 19.3549L15.4628 9.18736C14.3494 8.57486 13.4835 8.69736 12.865 9.30986L28.328 24.4999L33.5235 19.3549Z" fill="url(#paint3_linear_2292_223)"/>
<path opacity="0.2" d="M33.4 29.5227L15.463 39.5677C14.4734 40.1802 13.6075 40.0577 12.9889 39.5677L12.8652 39.6902L12.9889 39.8127C13.6075 40.3027 14.4734 40.4252 15.463 39.8127L33.4 29.5227Z" fill="black"/>
<path opacity="0.12" d="M12.8657 39.568C12.4946 39.2005 12.3708 38.588 12.3708 37.853V37.9755C12.3708 38.7105 12.6183 39.323 12.9894 39.6905V39.568H12.8657Z" fill="black"/>
<path opacity="0.12" d="M39.5853 26.0927L33.4001 29.5227L33.5238 29.6452L39.5853 26.2152C40.4513 25.7252 40.8224 25.1127 40.8224 24.5002C40.8224 25.1127 40.3276 25.6027 39.5853 26.0927Z" fill="black"/>
<path opacity="0.25" d="M15.4642 9.30972L39.5864 22.9072C40.3286 23.3972 40.8234 23.8872 40.8234 24.4997C40.8234 23.8872 40.4523 23.2747 39.5864 22.7847L15.4642 9.18722C13.7323 8.20722 12.3716 9.06472 12.3716 11.0247V11.1472C12.3716 9.18722 13.7323 8.32972 15.4642 9.30972Z" fill="white"/>
<path d="M51.0894 15.925V8.57495H53.316C54.4294 8.57495 55.419 8.94245 56.0375 9.55495C56.7797 10.29 57.0271 11.1475 57.0271 12.25C57.0271 13.3525 56.656 14.21 56.0375 14.945C55.2953 15.68 54.4294 15.925 53.316 15.925H51.0894ZM52.079 15.0674H53.4397C54.3057 15.0674 54.9242 14.8225 55.419 14.3325C55.9138 13.8425 56.1612 13.1075 56.1612 12.25C56.1612 11.3925 55.9138 10.6575 55.419 10.1675C54.9242 9.67745 54.182 9.43245 53.4397 9.43245H52.079V15.0674Z" fill="white" stroke="white" stroke-width="0.2" stroke-miterlimit="10"/>
<path d="M58.5115 15.925V8.57495H59.5011V15.925H58.5115Z" fill="white" stroke="white" stroke-width="0.2" stroke-miterlimit="10"/>
<path d="M63.2125 16.0473C62.7177 16.0473 62.0992 15.9248 61.6044 15.5573C61.1096 15.1898 60.7384 14.6998 60.6147 14.0873L61.4807 13.7198C61.6044 14.0873 61.8518 14.4548 62.0992 14.6998C62.4703 14.9448 62.8414 15.0673 63.2125 15.0673C63.5836 15.0673 63.9547 14.9448 64.3259 14.6998C64.5733 14.4548 64.8207 14.2098 64.8207 13.8423C64.8207 13.4748 64.697 13.1073 64.3259 12.8623C64.0784 12.6173 63.5836 12.3723 62.9651 12.2498C62.3466 12.0048 61.8518 11.7598 61.4807 11.5148C61.1096 11.1473 60.9859 10.7798 60.9859 10.2898C60.9859 9.79983 61.2333 9.30983 61.6044 8.94233C61.9755 8.57483 62.594 8.32983 63.2125 8.32983C63.831 8.32983 64.3259 8.45234 64.697 8.81984C65.0681 9.18734 65.3155 9.43233 65.4392 9.79983L64.5733 10.1673C64.4496 9.92233 64.3259 9.67733 64.0784 9.55483C63.831 9.30983 63.4599 9.30984 63.0888 9.30984C62.7177 9.30984 62.4703 9.43233 62.0992 9.55483C61.9755 9.79983 61.8518 10.0448 61.8518 10.4123C61.8518 10.6573 61.9755 10.9023 62.2229 11.1473C62.4703 11.3923 62.8414 11.5148 63.3362 11.6373C63.7073 11.7598 63.9547 11.8823 64.2022 12.0048C64.4496 12.1273 64.697 12.2498 64.9444 12.4948C65.1918 12.6173 65.4392 12.8623 65.5629 13.2298C65.6866 13.4748 65.8103 13.8423 65.8103 14.2098C65.8103 14.5773 65.6866 14.9448 65.5629 15.1898C65.4392 15.4348 65.1918 15.6798 64.9444 15.8023C64.697 15.9248 64.4496 16.0473 64.2022 16.1698C63.831 16.0473 63.5836 16.0473 63.2125 16.0473Z" fill="white" stroke="white" stroke-width="0.2" stroke-miterlimit="10"/>
<path d="M68.0365 15.925H67.0469V8.57495H69.5209C70.1395 8.57495 70.6343 8.81995 71.1291 9.18745C71.6239 9.55495 71.8713 10.1675 71.8713 10.78C71.8713 11.3925 71.6239 11.8825 71.1291 12.3725C70.6343 12.74 70.1395 12.985 69.5209 12.985H68.0365V15.925ZM68.0365 12.005H69.6447C70.0158 12.005 70.3869 11.8825 70.6343 11.6375C70.8817 11.3925 71.0054 11.025 71.0054 10.78C71.0054 10.4125 70.8817 10.1675 70.6343 9.92245C70.3869 9.67745 70.0158 9.55495 69.6447 9.55495H68.0365V12.005Z" fill="white" stroke="white" stroke-width="0.2" stroke-miterlimit="10"/>
<path d="M79.1703 14.9449C78.4281 15.6799 77.5622 16.0474 76.4488 16.0474C75.3355 16.0474 74.4696 15.6799 73.7273 14.9449C72.9851 14.2099 72.614 13.3524 72.614 12.2499C72.614 11.1474 72.9851 10.2899 73.7273 9.55489C74.4696 8.81989 75.3355 8.45239 76.4488 8.45239C77.5622 8.45239 78.4281 8.81989 79.1703 9.55489C79.9125 10.2899 80.2836 11.1474 80.2836 12.2499C80.2836 13.3524 79.9125 14.2099 79.1703 14.9449ZM74.4696 14.3324C74.9644 14.8224 75.7066 15.1899 76.4488 15.1899C77.1911 15.1899 77.9333 14.9449 78.4281 14.3324C78.9229 13.8424 79.294 13.1074 79.294 12.2499C79.294 11.3924 79.0466 10.6574 78.4281 10.1674C77.9333 9.67739 77.1911 9.30989 76.4488 9.30989C75.7066 9.30989 74.9644 9.55489 74.4696 10.1674C73.9748 10.6574 73.6036 11.3924 73.6036 12.2499C73.6036 13.1074 73.9748 13.8424 74.4696 14.3324Z" fill="white" stroke="white" stroke-width="0.2" stroke-miterlimit="10"/>
<path d="M81.644 15.925V8.57495H82.7574L86.3448 14.3325V12.8625V8.57495H87.3344V15.925H86.3448L82.51 9.92245V11.3925V15.925H81.644Z" fill="white" stroke="white" stroke-width="0.2" stroke-miterlimit="10"/>
<path d="M89.0669 15.925V8.57499H90.0565V15.925H89.0669ZM89.9328 7.96249H89.0669L89.5617 6.61499H90.5513L89.9328 7.96249Z" fill="white" stroke="white" stroke-width="0.2" stroke-miterlimit="10"/>
<path d="M93.5201 15.925L90.9224 8.57495H92.0357L94.015 14.5775L96.1179 8.57495H97.2313L94.5098 15.925H93.5201Z" fill="white" stroke="white" stroke-width="0.2" stroke-miterlimit="10"/>
<path d="M102.674 9.43245H99.3341V11.76H102.427V12.6174H99.3341V14.945H102.674V15.925H98.3445V8.57495H102.674V9.43245Z" fill="white" stroke="white" stroke-width="0.2" stroke-miterlimit="10"/>
<path d="M104.158 15.925V8.57495H105.148V15.0674H108.364V15.925H104.158Z" fill="white" stroke="white" stroke-width="0.2" stroke-miterlimit="10"/>
<path d="M112.075 15.925V8.57495H113.188L116.776 14.3325V12.8625V8.57495H117.765V15.925H116.776L112.941 9.92245V11.3925V15.925H112.075Z" fill="white" stroke="white" stroke-width="0.2" stroke-miterlimit="10"/>
<path d="M125.559 14.9449C124.817 15.6799 123.951 16.0474 122.838 16.0474C121.724 16.0474 120.858 15.6799 120.116 14.9449C119.374 14.2099 119.003 13.3524 119.003 12.2499C119.003 11.1474 119.374 10.2899 120.116 9.55489C120.858 8.81989 121.724 8.45239 122.838 8.45239C123.951 8.45239 124.817 8.81989 125.559 9.55489C126.301 10.2899 126.672 11.1474 126.672 12.2499C126.549 13.3524 126.178 14.2099 125.559 14.9449ZM120.735 14.3324C121.229 14.8224 121.972 15.1899 122.714 15.1899C123.456 15.1899 124.198 14.9449 124.693 14.3324C125.188 13.8424 125.559 13.1074 125.559 12.2499C125.559 11.3924 125.312 10.6574 124.693 10.1674C124.198 9.67739 123.456 9.30989 122.714 9.30989C121.972 9.30989 121.229 9.55489 120.735 10.1674C120.24 10.6574 119.869 11.3924 119.869 12.2499C119.869 13.1074 120.24 13.8424 120.735 14.3324Z" fill="white" stroke="white" stroke-width="0.2" stroke-miterlimit="10"/>
<defs>
<linearGradient id="paint0_linear_2292_223" x1="26.967" y1="10.6694" x2="6.4095" y2="31.4288" gradientUnits="userSpaceOnUse">
<stop stop-color="#00A0FF"/>
<stop offset="0.00657445" stop-color="#00A1FF"/>
<stop offset="0.2601" stop-color="#00BEFF"/>
<stop offset="0.5122" stop-color="#00D2FF"/>
<stop offset="0.7604" stop-color="#00DFFF"/>
<stop offset="1" stop-color="#00E3FF"/>
</linearGradient>
<linearGradient id="paint1_linear_2292_223" x1="41.8546" y1="24.5015" x2="11.9222" y2="24.5015" gradientUnits="userSpaceOnUse">
<stop stop-color="#FFE000"/>
<stop offset="0.4087" stop-color="#FFBD00"/>
<stop offset="0.7754" stop-color="#FFA500"/>
<stop offset="1" stop-color="#FF9C00"/>
</linearGradient>
<linearGradient id="paint2_linear_2292_223" x1="30.7117" y1="27.313" x2="2.83414" y2="55.4645" gradientUnits="userSpaceOnUse">
<stop stop-color="#FF3A44"/>
<stop offset="1" stop-color="#C31162"/>
</linearGradient>
<linearGradient id="paint3_linear_2292_223" x1="9.02684" y1="0.215702" x2="21.4754" y2="12.7865" gradientUnits="userSpaceOnUse">
<stop stop-color="#32A071"/>
<stop offset="0.0685" stop-color="#2DA771"/>
<stop offset="0.4762" stop-color="#15CF74"/>
<stop offset="0.8009" stop-color="#06E775"/>
<stop offset="1" stop-color="#00F076"/>
</linearGradient>
</defs>
</svg>
